<svg width="16" height="16" viewBox="0 0 16 16" fill="none" xmlns="http://www.w3.org/2000/svg">
<g id="Icon">
<path id="Vector" d="M14.1296 13.0958L11.373 10.3393C12.0367 9.4558 12.395 8.38041 12.3937 7.27542C12.3937 4.45297 10.0975 2.15668 7.275 2.15668C4.45254 2.15668 2.15625 4.45297 2.15625 7.27542C2.15625 10.0979 4.45254 12.3942 7.275 12.3942C8.37998 12.3954 9.45537 12.0371 10.3389 11.3735L13.0954 14.13C13.2349 14.2547 13.4169 14.3213 13.604 14.3161C13.7911 14.3109 13.9691 14.2342 14.1014 14.1019C14.2338 13.9695 14.3104 13.7915 14.3157 13.6044C14.3209 13.4174 14.2543 13.2354 14.1296 13.0958ZM3.61875 7.27542C3.61875 6.55229 3.83318 5.84539 4.23494 5.24412C4.63669 4.64286 5.20772 4.17422 5.87581 3.89749C6.5439 3.62076 7.27905 3.54835 7.9883 3.68943C8.69754 3.83051 9.34902 4.17873 9.86036 4.69007C10.3717 5.2014 10.7199 5.85288 10.861 6.56213C11.0021 7.27137 10.9297 8.00652 10.6529 8.67461C10.3762 9.3427 9.90757 9.91373 9.3063 10.3155C8.70503 10.7172 7.99814 10.9317 7.275 10.9317C6.30566 10.9305 5.37635 10.5449 4.69092 9.8595C4.0055 9.17407 3.61991 8.24477 3.61875 7.27542Z" fill="#2D3748"/>
</g>
</svg>
