<svg width="13" height="13" viewBox="0 0 13 13" fill="none" xmlns="http://www.w3.org/2000/svg">
<path d="M2.58179 2.78788H10.3943C10.4855 2.78784 10.5767 2.79363 10.6672 2.80522C10.6366 2.58983 10.5626 2.38289 10.4497 2.19686C10.3369 2.01084 10.1876 1.8496 10.0108 1.72284C9.83394 1.59609 9.63328 1.50646 9.42088 1.45936C9.20847 1.41226 8.98873 1.40866 8.7749 1.44877L2.34985 2.5457H2.34253C1.93923 2.62282 1.58058 2.851 1.33984 3.18363C1.70254 2.92566 2.1367 2.78731 2.58179 2.78788Z" fill="white"/>
<path d="M10.394 3.37491H2.58154C2.16728 3.37536 1.77012 3.54013 1.47719 3.83305C1.18426 4.12598 1.0195 4.52315 1.01904 4.93741V9.62491C1.0195 10.0392 1.18426 10.4363 1.47719 10.7293C1.77012 11.0222 2.16728 11.187 2.58154 11.1874H10.394C10.8083 11.187 11.2055 11.0222 11.4984 10.7293C11.7913 10.4363 11.9561 10.0392 11.9565 9.62491V4.93741C11.9561 4.52315 11.7913 4.12598 11.4984 3.83305C11.2055 3.54013 10.8083 3.37536 10.394 3.37491ZM9.23437 8.06241C9.07986 8.06241 8.92881 8.01659 8.80033 7.93074C8.67186 7.8449 8.57172 7.72288 8.51259 7.58013C8.45346 7.43737 8.43799 7.28029 8.46813 7.12874C8.49828 6.9772 8.57269 6.83799 8.68195 6.72873C8.79121 6.61947 8.93041 6.54506 9.08196 6.51492C9.23351 6.48477 9.39059 6.50025 9.53334 6.55938C9.6761 6.61851 9.79811 6.71864 9.88396 6.84712C9.9698 6.97559 10.0156 7.12664 10.0156 7.28116C10.0156 7.48836 9.93331 7.68707 9.7868 7.83358C9.64029 7.9801 9.44157 8.06241 9.23437 8.06241Z" fill="white"/>
<path d="M1.03125 6.58411V4.15491C1.03125 3.62585 1.32422 2.73889 2.34106 2.54675C3.2041 2.38489 4.05859 2.38489 4.05859 2.38489C4.05859 2.38489 4.62012 2.77551 4.15625 2.77551C3.69238 2.77551 3.70459 3.37366 4.15625 3.37366C4.60791 3.37366 4.15625 3.94739 4.15625 3.94739L2.3374 6.01038L1.03125 6.58411Z" fill="white"/>
</svg>
