<svg width="15" height="15" viewBox="0 0 15 15" fill="none" xmlns="http://www.w3.org/2000/svg">
<path d="M7.5 1.40607C4.13994 1.40607 1.40625 4.13976 1.40625 7.49982C1.40625 10.8599 4.13994 13.5936 7.5 13.5936C10.8601 13.5936 13.5937 10.8599 13.5937 7.49982C13.5937 4.13976 10.8601 1.40607 7.5 1.40607ZM10.6714 5.45753L6.73389 10.145C6.69069 10.1965 6.63695 10.238 6.57629 10.2669C6.51564 10.2958 6.44949 10.3112 6.38232 10.3123H6.37441C6.30871 10.3123 6.24375 10.2985 6.18374 10.2717C6.12373 10.245 6.07001 10.2059 6.02607 10.157L4.33857 8.28204C4.29572 8.23659 4.26238 8.18302 4.24052 8.1245C4.21866 8.06598 4.20872 8.00367 4.21128 7.94126C4.21384 7.87883 4.22886 7.81756 4.25544 7.76102C4.28202 7.70449 4.31964 7.65383 4.36608 7.61205C4.41251 7.57026 4.46684 7.53817 4.52585 7.51767C4.58487 7.49718 4.64738 7.48869 4.70973 7.4927C4.77207 7.49671 4.83298 7.51314 4.88889 7.54103C4.94479 7.56891 4.99455 7.60769 5.03525 7.65509L6.36211 9.12931L9.95361 4.8546C10.0342 4.76146 10.1482 4.70376 10.2709 4.69398C10.3937 4.6842 10.5153 4.72312 10.6096 4.80233C10.7039 4.88153 10.7633 4.99467 10.7748 5.11727C10.7864 5.23988 10.7492 5.3621 10.6714 5.45753Z" fill="#01B574"/>
</svg>
